# xmcd
#
# Track frame offsets:
# 150
# 20630
# 39783
# 57236
# 74330
# 98252
# 156227
# 197059
# 235887
# 255272
# 271158
# 285149
#
# Disc length: 4218 seconds
#
# Revision: 0
# Processed by: cddbd v1.4PL0 Copyright (c) Steve Scherf et al.
# Submitted via: Axialis_AX_CDPlayer 2.6
#
DISCID=9010780c
DTITLE=Allman Brothers Band - A&R Studios  NY 26 -08 -71
DYEAR=1900
DGENRE=
TTITLE0=Statesboro Blues
TTITLE1=Trouble No More
TTITLE2=Don't Keep Me Wonderin'
TTITLE3=Done Somebody Wrong
TTITLE4=One Way Out
TTITLE5=In Memory of Elizabeth Reed
TTITLE6=Stormy Monday
TTITLE7=You Don't Love Me (In memory of King Curtis)
TTITLE8=Soul Serenade
TTITLE9=Jam
TTITLE10=Mountain Jam
TTITLE11=intro's (Hot 'Lanta)
EXTD=
EXTT0=
EXTT1=
EXTT2=
EXTT3=
EXTT4=
EXTT5=
EXTT6=
EXTT7=
EXTT8=
EXTT9=
EXTT10=
EXTT11=
PLAYORDER=
